<?xml version="1.0" encoding="utf-8"?>
<!-- Generator: Adobe Illustrator 25.3.1, SVG Export Plug-In . SVG Version: 6.00 Build 0)  -->
<svg version="1.1" id="wave" xmlns="http://www.w3.org/2000/svg" xmlns:xlink="http://www.w3.org/1999/xlink" x="0px" y="0px"
	 viewBox="0 0 1440 490" style="enable-background:new 0 0 1440 490;" xml:space="preserve">
<style type="text/css">
	.st0{opacity:0.33;fill:#307539;}
	.st1{opacity:0.66;fill:#307539;enable-background:new    ;}
</style>
<path class="st0" d="M0,0l40,8.2C80,16,160,33,240,57.2C320,82,400,114,480,179.7C560,245,640,343,720,351.2
	c80,7.8,160-73.2,240-147C1040,131,1120,65,1200,89.8c80,24.2,160,139.2,240,171.5c80,32.7,160-16.3,240-16.3s160,49,240,24.5
	s160-122.5,240-130.7c80-7.8,160,73.2,240,73.5c80-0.3,160-81.3,240-106.1c80-24.2,160,7.8,240,8.1c80-0.3,160-32.3,240-57.1
	c80-24.2,160-41.2,240-49c80-8.2,160-8.2,240,8.1c80,16.7,160,48.7,240,106.2s160,138.5,240,196s160,89.5,240,40.8
	c80-49.3,160-179.3,240-179.6c80,0.3,160,130.3,240,138.8s160-106.5,240-130.7c80-24.8,160,41.2,240,73.5c80,32.7,160,32.7,240,57.2
	s160,73.5,200,98l40,24.5v49h-40c-40,0-120,0-200,0s-160,0-240,0s-160,0-240,0s-160,0-240,0s-160,0-240,0s-160,0-240,0s-160,0-240,0
	s-160,0-240,0s-160,0-240,0s-160,0-240,0s-160,0-240,0s-160,0-240,0s-160,0-240,0s-160,0-240,0s-160,0-240,0s-160,0-240,0
	s-160,0-240,0s-160,0-240,0s-160,0-240,0s-160,0-240,0s-160,0-240,0s-160,0-240,0s-160,0-240,0s-160,0-200,0H0V0z"/>
<path class="st1" d="M0,98l40,40.8C80,180,160,261,240,310.3c80,48.7,160,65.7,240,8.2S640,131,720,65.3C800,0,880,0,960,57.2
	C1040,114,1120,229,1200,294s160,82,240,24.5S1600,131,1680,81.7c80-48.7,160-16.7,240,8.1c80,24.2,160,41.2,240,81.7
	s160,106.5,240,114.3c80,8.2,160-40.8,240-24.5c80,16.7,160,97.7,240,122.5c80,24.2,160-7.8,240-49c80-40.8,160-89.8,240-147
	C3440,131,3520,65,3600,65.3c80-0.3,160,65.7,240,73.5c80,8.2,160-40.8,240-40.8s160,49,240,81.7c80,32.3,160,49.3,240,73.5
	c80,24.8,160,56.8,240,65.3s160-8.5,240-65.3C5120,196,5200,98,5280,65.3c80-32.3,160-0.3,240,24.5c80,24.2,160,41.2,200,49l40,8.2
	v343h-40c-40,0-120,0-200,0s-160,0-240,0s-160,0-240,0s-160,0-240,0s-160,0-240,0s-160,0-240,0s-160,0-240,0s-160,0-240,0
	s-160,0-240,0s-160,0-240,0s-160,0-240,0s-160,0-240,0s-160,0-240,0s-160,0-240,0s-160,0-240,0s-160,0-240,0s-160,0-240,0
	s-160,0-240,0s-160,0-240,0s-160,0-240,0s-160,0-240,0s-160,0-240,0s-160,0-240,0s-160,0-200,0H0V98z"/>
</svg>
