<svg id="Layer_1" data-name="Layer 1" xmlns="http://www.w3.org/2000/svg" viewBox="0 0 406 306"><rect x="48.9" y="11.33" width="340.97" height="218.4" rx="8.24" style="fill:#307539;isolation:isolate;opacity:0.47999998927116394"/><path d="M383.12,245.68c-.24,7.15-1.88,14.43-5.89,20.36-5,7.46-13.24,12.09-21.17,16.43l-22.5,12.38c-9.86,5.43-20.25,11-31.49,11.15-7.95.12-15.65-2.5-23.3-4.7C243,291,205.41,289.54,168.48,292.15c-18.92,1.33-37.74,3.68-56.49,6.5-15,2.23-33,9.64-46.51.87C50.75,290,41.71,274.44,33.39,259.39c-7.25-13.06-14.59-26.44-17-41.18-3.68-22.78,5.14-46.17,18.94-64.67A147.41,147.41,0,0,1,48.9,137.89V221.5a8.29,8.29,0,0,0,8.24,8.29H381.62A64.27,64.27,0,0,1,383.12,245.68Z" style="fill:#307539;isolation:isolate;opacity:0.18000000715255737"/><path d="M261.89,11.34H175.13a52.13,52.13,0,0,1,10.56-6.22A66.16,66.16,0,0,1,207.48.26,106.28,106.28,0,0,1,261.89,11.34Z" style="fill:#307539;isolation:isolate;opacity:0.18000000715255737"/><path d="M182.5,202.24a13,13,0,0,0,3,2.91,14,14,0,0,0,5.52,1.64l29.39,4.43a1.75,1.75,0,0,1,.82.28,1.68,1.68,0,0,1,.43,1.32,51.75,51.75,0,0,1-2.2,16.26,2.25,2.25,0,0,1-.6,1.14,2.38,2.38,0,0,1-1.34.41c-9.89.83-19.82.57-29.74.3a20.64,20.64,0,0,1-4.95-.54c-2.76-.78-5-2.66-7.1-4.61-4.46-4.15-22.53-20.84-23.63-23.1a63,63,0,0,1-3.5-10.05c-.92-3.32,5.81-3.73,5.67-7.18a22.39,22.39,0,0,1,.85-7,12.07,12.07,0,0,1,3-5.45c1-.92-.56-7.16.84-7.23,1.62,5.52,9,16.57,12.14,21.3A178.36,178.36,0,0,0,182.5,202.24Z" style="fill:#1e3a8a"/><path d="M182.5,202.24a13,13,0,0,0,3,2.91,14,14,0,0,0,5.52,1.64l29.39,4.43a1.75,1.75,0,0,1,.82.28,1.68,1.68,0,0,1,.43,1.32,51.75,51.75,0,0,1-2.2,16.26,2.25,2.25,0,0,1-.6,1.14,2.38,2.38,0,0,1-1.34.41c-9.89.83-19.82.57-29.74.3a20.64,20.64,0,0,1-4.95-.54c-2.76-.78-5-2.66-7.1-4.61-4.46-4.15-22.53-20.84-23.63-23.1a63,63,0,0,1-3.5-10.05c-.92-3.32,5.81-3.73,5.67-7.18a22.39,22.39,0,0,1,.85-7,12.07,12.07,0,0,1,3-5.45c1-.92-.56-7.16.84-7.23,1.62,5.52,9,16.57,12.14,21.3A178.36,178.36,0,0,0,182.5,202.24Z" style="fill:#003f17"/><path d="M108.15,155.61a53.27,53.27,0,0,0-5.53,5.71c-4.07,5-6.77,10.94-9.29,16.87C86.61,194,80.77,210.84,82.51,227.9a6.41,6.41,0,0,0,.81,2.93,5.68,5.68,0,0,0,3.16,2A34.16,34.16,0,0,0,96.6,234c13.27.12,26.55.24,39.81-.41,2.05-.1,4.22-.26,5.93-1.42a9.69,9.69,0,0,0,2.89-3.61c3.56-6.71,4.6-14.46,7.36-21.51,3.68-9.2,13.81-17.57,11.67-27.27C155.13,138.55,112.33,151.81,108.15,155.61Z" style="fill:#1e3a8a"/><path d="M108.15,155.61a53.27,53.27,0,0,0-5.53,5.71c-4.07,5-6.77,10.94-9.29,16.87C86.61,194,80.77,210.84,82.51,227.9a6.41,6.41,0,0,0,.81,2.93,5.68,5.68,0,0,0,3.16,2A34.16,34.16,0,0,0,96.6,234c13.27.12,26.55.24,39.81-.41,2.05-.1,4.22-.26,5.93-1.42a9.69,9.69,0,0,0,2.89-3.61c3.56-6.71,4.6-14.46,7.36-21.51,3.68-9.2,13.81-17.57,11.67-27.27C155.13,138.55,112.33,151.81,108.15,155.61Z" style="fill:#307539"/><path d="M168.09,121.48c-1.55,7.56-3.18,15.32-7.36,21.83a16.94,16.94,0,0,1-6.38,6.28,8.85,8.85,0,0,1-8.65-.12c-1.26-.82-2.64-2.11-4-1.5-1,.45-1.31,1.68-1.45,2.76a27.57,27.57,0,0,0,.11,8,6.94,6.94,0,0,1,.13,2.27,3.75,3.75,0,0,1-3,2.76,7.16,7.16,0,0,1-4.17-.65,13.5,13.5,0,0,1-7.77-10,32.78,32.78,0,0,1-.27-4.42c-.18-6.56-1.22-13.08-1-19.63s1.84-13.36,6.28-18.19a28.7,28.7,0,0,1,9-6.22c5-2.4,10.61-4.08,16.1-3.21a15.31,15.31,0,0,1,10.65,7.11C169.16,113,169.17,116.25,168.09,121.48Z" style="fill:#ffdad2"/><path d="M181.8,104.83a15.21,15.21,0,0,0-8.06-15.33A39.93,39.93,0,0,0,166,87.07c-6.17-1.66-12.09-4.4-18.41-5s-13.6,1.63-16.42,7.36c-.51,1-1,2.32-2.15,2.6a4.75,4.75,0,0,1-1.84-.17c-4.23-.74-8,2.86-9.94,6.7-3.07,6.22-3.23,13.46-2.55,20.36.61,6.38,2.24,13.27,7.36,17.15.51.39,1.25.74,1.74.33a1.56,1.56,0,0,0,.4-.86,28.42,28.42,0,0,0,.57-7.36,18.19,18.19,0,0,1,.08-5.61c.48-1.81,2-3.53,3.89-3.48s3.14,1.62,3.57,3.31a12.17,12.17,0,0,1-.19,5.2c.28.69,1.24-.14,1.41-.86,1.27-5.78,1.56-12.25,5.57-16.57a7.12,7.12,0,0,1,1.73,3,4.61,4.61,0,0,1,4.74-1.18,11.34,11.34,0,0,1,3.17,2.07C158.46,121.72,179.75,119.45,181.8,104.83Z" style="fill:#3f3d56"/><path d="M111,165c-3.09,2.24-4.6,6.19-4.69,10s3.94,28,7.74,34.86c2.95,5.34,9.09,19.28,18.41,23.13,2.76,1.14,43.59.66,62.53-1.39-.12-4.49-.34-9-.63-13.45a2.51,2.51,0,0,0-.51-1.65c-.48-.5-1.16-3.75-1.84-3.75-11,.05-22.18,3.43-33.23,3.69a19.81,19.81,0,0,1-4.8-.29,13.73,13.73,0,0,1-3.68-1.51c-8.52-4.82-13.24-14.29-16.57-23.51-2.55-7.11-4.6-14.46-8.28-21.1-1.31-2.36-2.48-4.67-5.06-5.71C117.32,163.14,113.77,163,111,165Z" style="fill:#1e3a8a"/><path d="M111,165c-3.09,2.24-4.6,6.19-4.69,10s3.94,28,7.74,34.86c2.95,5.34,9.09,19.28,18.41,23.13,2.76,1.14,43.59.66,62.53-1.39-.12-4.49-.34-9-.63-13.45a2.51,2.51,0,0,0-.51-1.65c-.48-.5-1.16-3.75-1.84-3.75-11,.05-22.18,3.43-33.23,3.69a19.81,19.81,0,0,1-4.8-.29,13.73,13.73,0,0,1-3.68-1.51c-8.52-4.82-13.24-14.29-16.57-23.51-2.55-7.11-4.6-14.46-8.28-21.1-1.31-2.36-2.48-4.67-5.06-5.71C117.32,163.14,113.77,163,111,165Z" style="fill:#003f17"/><path d="M240.83,210.51a7.78,7.78,0,0,1,2.56,2.35,3.36,3.36,0,0,1,.24,3.34,4.67,4.67,0,0,1-1.72,1.55c-5.09,3-11.33,3.57-16.49,6.44a8.9,8.9,0,0,1-3.55,1.55,4.93,4.93,0,0,1-3.94-1.84A12.72,12.72,0,0,1,215.8,220C209.78,204.13,232.15,205,240.83,210.51Z" style="fill:#ffdad2"/><path d="M95,203.44H118.8V223a6.9,6.9,0,0,1-6.91,6.9h-10A6.9,6.9,0,0,1,95,223V203.44Z" style="fill:#fff"/><path d="M117.19,208.19h7.22a5.76,5.76,0,0,1,5.76,5.76v2.38a5.75,5.75,0,0,1-5.76,5.75h-7.22V208.19Z" style="fill:none;stroke:#fff;stroke-miterlimit:9.205499291419983;stroke-width:3.037814722273353px"/><path d="M62.22,229.51H385.31a5.12,5.12,0,0,1,5.12,5.12h0a5.11,5.11,0,0,1-5.12,5.11H62.22a5.11,5.11,0,0,1-5.12-5.11h0A5.12,5.12,0,0,1,62.22,229.51Z" style="fill:#307539"/><rect x="143.29" y="239.9" width="182.63" height="63.34" style="fill:#1e3a8a"/><rect x="72.8" y="239.9" width="71.74" height="63.34" style="fill:#1e3a8a"/><rect x="144.5" y="239.9" width="181.43" height="63.34" style="fill:#003f17"/><rect x="72.8" y="239.9" width="71.74" height="63.34" style="fill:#307539"/><path d="M389.86,19.58V59.9H48.9V19.58a8.28,8.28,0,0,1,8.24-8.28H381.62A8.28,8.28,0,0,1,389.86,19.58Z" style="fill:#1e3a8a;isolation:isolate;opacity:0.18000000715255737"/><path d="M314.3,229.34H196.07a6,6,0,0,1-6-6h0a6,6,0,0,1,6-6H314.3a6,6,0,0,1,6,6h0A6,6,0,0,1,314.3,229.34Z"/><path d="M237.07,229.36h90.74l23.93-60.7a5.34,5.34,0,0,0-5-7.29h-71.2a17.22,17.22,0,0,0-16,10.88Z" style="fill:#4b4b4b"/><path d="M241.68,229.42h86.18l22.73-57.65a5.06,5.06,0,0,0-2.85-6.57,4.93,4.93,0,0,0-1.86-.36H278.25a16.33,16.33,0,0,0-15.18,10.33Z" style="fill:#a29999"/><path d="M241.68,229.36h86.18l22.73-57.66a5.06,5.06,0,0,0-2.85-6.57,5.12,5.12,0,0,0-1.86-.35H278.25a16.31,16.31,0,0,0-15.18,10.33Z" style="fill:#030e22"/><rect x="211.66" y="142.33" width="127.59" height="7.18" style="fill:#fff;isolation:isolate;opacity:0.5099999904632568"/><rect x="211.66" y="130.04" width="90.7" height="7.18" style="fill:#fff"/><rect x="314.76" y="130.04" width="60.72" height="7.18" style="fill:#fff"/><rect x="281.92" y="84.58" width="93.35" height="6.38" style="fill:#fff"/><rect x="262.37" y="95.91" width="99.87" height="6.38" style="fill:#fff;isolation:isolate;opacity:0.5099999904632568"/><rect x="213.39" y="84.58" width="61.4" height="6.38" style="fill:#fff"/><rect x="240.33" y="106.9" width="134.94" height="6.38" style="fill:#fff"/><rect x="213.39" y="106.9" width="19.81" height="6.38" style="fill:#fff;isolation:isolate;opacity:0.5099999904632568"/><rect x="286.2" y="118.24" width="89.07" height="6.38" style="fill:#fff;isolation:isolate;opacity:0.5099999904632568"/><rect x="213.39" y="118.24" width="61.4" height="6.38" style="fill:#fff"/><rect x="213.39" y="95.65" width="39.48" height="6.38" style="fill:#fff"/><rect x="247.78" y="63.1" width="93.35" height="6.38" style="fill:#fff"/><rect x="228.22" y="74.44" width="99.87" height="6.38" style="fill:#fff;isolation:isolate;opacity:0.5099999904632568"/><rect x="179.26" y="63.1" width="61.4" height="6.38" style="fill:#fff"/><rect x="246.95" y="49.89" width="93.35" height="6.38" style="fill:#fff"/><rect x="178.43" y="37.91" width="61.4" height="6.38" style="fill:#fff"/><rect x="178.43" y="26.97" width="61.4" height="6.38" style="fill:#fff"/><rect x="179.26" y="74.17" width="39.48" height="6.38" style="fill:#fff"/><path d="M193.33,211.93c5.74-.54,12.11.74,15.75,5.2a2.75,2.75,0,0,1,.71,1.47,2.39,2.39,0,0,1-.44,1.39c-2.14,3.57-6.8,4.41-10.71,5.82a27.64,27.64,0,0,0-5.79,2.87,9.22,9.22,0,0,1-3.46,1.72c-2.77.41-5.06-2.06-6.31-4.52-1.44-2.77-3.68-8.44-.92-11C184.41,212.76,190.5,212.19,193.33,211.93Z" style="fill:#ffdad2"/></svg>